<svg width="43" height="43" viewBox="0 0 43 43" fill="none" xmlns="http://www.w3.org/2000/svg">
<g clip-path="url(#clip0)">
<path d="M42.7008 18.0368L28.6532 5.21167C28.484 5.05722 28.2633 4.97156 28.0342 4.97156H15.2548C15.036 4.97156 14.8172 5.04941 14.643 5.20503L0.306429 18.0146C-0.0716693 18.3526 -0.104423 18.933 0.23353 19.3112C0.414937 19.5141 0.666218 19.6176 0.918592 19.6176C1.13628 19.6176 1.35489 19.5406 1.53008 19.3841L2.85855 18.1972V37.1102C2.85855 37.6173 3.26974 38.0285 3.77684 38.0285H39.9762C40.4833 38.0285 40.8945 37.6173 40.8945 37.1102C40.8945 36.603 40.4833 36.1919 39.9762 36.1919H37.2928V19.6332H42.0818C42.4608 19.6332 42.8009 19.4003 42.9379 19.0469C43.0748 18.6935 42.9808 18.2923 42.7008 18.0368ZM21.5639 6.80805L33.5999 17.7966H29.8088L17.6415 6.80805H21.5639ZM4.69495 16.5564L15.2515 7.12417L25.8146 16.664V36.192C11.7004 36.192 14.3621 36.192 4.69495 36.192V16.5564ZM27.6511 18.3226L28.8401 19.3964C29.0089 19.5488 29.2282 19.6332 29.4555 19.6332H35.4563V36.192H27.6512L27.6511 18.3226ZM36.3237 17.7967L24.2877 6.80805H27.6781L39.714 17.7966L36.3237 17.7967Z" fill="#231F20"/>
<path d="M13.9492 27.0488C13.9492 26.1374 14.0599 25.4115 14.2812 24.8711C14.5026 24.3307 14.9062 23.8001 15.4922 23.2793C16.0846 22.752 16.4785 22.3255 16.6738 22C16.8691 21.668 16.9668 21.3197 16.9668 20.9551C16.9668 19.8548 16.459 19.3047 15.4434 19.3047C14.9616 19.3047 14.5742 19.4544 14.2812 19.7539C13.9948 20.0469 13.8451 20.4538 13.832 20.9746H11C11.013 19.7311 11.4134 18.7578 12.2012 18.0547C12.9954 17.3516 14.0762 17 15.4434 17C16.8236 17 17.8945 17.3353 18.6562 18.0059C19.418 18.6699 19.7988 19.6107 19.7988 20.8281C19.7988 21.3815 19.6751 21.9056 19.4277 22.4004C19.1803 22.8887 18.7474 23.4323 18.1289 24.0312L17.3379 24.7832C16.8431 25.2585 16.5599 25.8151 16.4883 26.4531L16.4492 27.0488H13.9492ZM13.666 30.0469C13.666 29.6107 13.8125 29.2526 14.1055 28.9727C14.4049 28.6862 14.7858 28.543 15.248 28.543C15.7103 28.543 16.0879 28.6862 16.3809 28.9727C16.6803 29.2526 16.8301 29.6107 16.8301 30.0469C16.8301 30.4766 16.6836 30.8314 16.3906 31.1113C16.1042 31.3913 15.7233 31.5312 15.248 31.5312C14.7728 31.5312 14.3887 31.3913 14.0957 31.1113C13.8092 30.8314 13.666 30.4766 13.666 30.0469Z" fill="black"/>
</g>
<defs>
<clipPath id="clip0">
<rect width="43" height="43" fill="white"/>
</clipPath>
</defs>
</svg>
