<svg width="33" height="33" viewBox="0 0 33 33" fill="none" xmlns="http://www.w3.org/2000/svg">
<path d="M9.4353 24.5244C9.73136 24.3048 16.7608 19.21 23.8869 24.5244L25.1195 22.8707C16.7416 16.6203 8.28515 22.8093 8.20056 22.8718L9.4353 24.5244Z" fill="black"/>
<path d="M9.30537 15.4063L11.2098 13.5017L13.1142 15.4063L14.5724 13.948L12.668 12.0434L14.5724 10.1388L13.1142 8.68054L11.2098 10.5851L9.30537 8.68054L7.84717 10.1388L9.75161 12.0434L7.84717 13.948L9.30537 15.4063Z" fill="black"/>
<path d="M19.8858 15.4063L21.7901 13.5017L23.6946 15.4063L25.1528 13.948L23.2483 12.0434L25.1528 10.1388L23.6946 8.68054L21.7901 10.5851L19.8858 8.68054L18.4275 10.1388L20.3319 12.0434L18.4275 13.948L19.8858 15.4063Z" fill="black"/>
<path d="M4.65273 33H28.3473C30.9123 33 33 30.9123 33 28.3473V4.65273C33 2.08715 30.9123 0 28.3473 0H4.65273C2.08769 0 0 2.08715 0 4.65273V28.3473C0 30.9123 2.08769 33 4.65273 33ZM2.0625 4.65273C2.0625 3.22471 3.22464 2.0625 4.65273 2.0625H28.3473C29.7754 2.0625 30.9376 3.22471 30.9376 4.65273V28.3473C30.9376 29.7754 29.7754 30.9376 28.3473 30.9376H4.65273C3.22471 30.9376 2.0625 29.7754 2.0625 28.3473V4.65273Z" fill="black"/>
</svg>
