<svg width="45" height="46" viewBox="0 0 45 46" fill="none" xmlns="http://www.w3.org/2000/svg">
<path d="M34.9629 4.09433C34.6723 3.89564 34.2894 3.89564 33.9989 4.09433C33.7649 4.25434 28.537 7.88579 28.0054 12.9055C26.0144 12.6568 23.9987 12.531 22.0001 12.531C20.0014 12.531 17.9857 12.6569 15.9947 12.9055C15.463 7.88579 10.2351 4.25434 10.0011 4.09433C9.71056 3.89564 9.32767 3.89564 9.0371 4.09433C8.79062 4.26295 3 8.28561 3 13.7252C3 16.4499 4.74073 20.0214 7.38351 21.3606C7.66598 24.4332 7.93926 27.4432 8.19732 30.3212C8.66022 35.0815 12.9202 39.3246 18.5567 40.6398C18.8223 40.7018 19.0903 40.7323 19.3562 40.7323C20.1355 40.7323 20.8967 40.4703 21.5242 39.9724C21.6985 39.8341 21.8575 39.6815 22.0001 39.5172C22.1426 39.6815 22.3016 39.8338 22.4759 39.9722C23.3175 40.64 24.399 40.8834 25.4432 40.6396C27.602 40.136 29.6324 39.1801 31.3145 37.8754C33.9324 35.8462 35.5263 33.1634 35.8032 30.3148C36.0619 27.4303 36.3353 24.4202 36.6164 21.3606C39.2593 20.0213 41 16.4497 41 13.7252C41 8.28561 35.2094 4.26295 34.9629 4.09433ZM22.1802 33.2013C20.5184 33.2013 19.3603 32.3847 19.3603 31.6517C19.3603 30.9188 20.5184 30.1022 22.1802 30.1022C23.842 30.1022 25.0002 30.9188 25.0002 31.6517C25.0002 32.3847 23.8421 33.2013 22.1802 33.2013ZM35.5071 19.9873C35.203 20.1035 34.9916 20.3824 34.9617 20.7066C34.6643 23.9388 34.3751 27.1201 34.1029 30.1559C33.8725 32.5254 32.5106 34.7876 30.268 36.5259C28.7786 37.6811 26.9761 38.5285 25.0551 38.9767C24.5214 39.1013 23.9682 38.9765 23.5373 38.6345C23.103 38.2899 22.8539 37.7744 22.8539 37.2205C22.8539 37.2205 22.8539 37.2205 22.8539 37.2204C22.8539 37.1843 22.8539 34.8745 22.8539 34.8745C25.0623 34.6469 26.708 33.3134 26.708 31.6519C26.708 29.8254 24.7192 28.3947 22.1803 28.3947C19.6414 28.3947 17.6526 29.8254 17.6526 31.6519C17.6526 33.2215 19.1219 34.498 21.1463 34.8262C21.1463 34.8262 21.1463 37.1845 21.1463 37.2205C21.1463 37.2205 21.1463 37.2204 21.1463 37.2205C21.1463 37.7746 20.8972 38.2901 20.4627 38.6348C20.0318 38.9768 19.4784 39.1014 18.9449 38.9769C14.0106 37.8254 10.2901 34.1981 9.89759 30.1623C9.62618 27.1343 9.33702 23.953 9.03829 20.7066C9.00838 20.3824 8.797 20.1035 8.49293 19.9872C6.32648 19.1589 4.7077 15.998 4.7077 13.7251C4.7077 10.0174 8.21342 6.89935 9.51908 5.86682C10.8256 6.90002 14.3305 10.0178 14.3305 13.7251C14.3305 13.7681 14.3299 13.8113 14.3287 13.8548C14.3224 14.1064 14.4272 14.3479 14.6153 14.515C14.8035 14.6821 15.0558 14.7577 15.3047 14.7216C17.517 14.4011 19.7695 14.2386 22 14.2386C24.2304 14.2386 26.483 14.4011 28.6953 14.7216C28.9443 14.7579 29.1965 14.6821 29.3847 14.515C29.5729 14.3479 29.6777 14.1064 29.6712 13.8548C29.6701 13.8113 29.6695 13.7681 29.6695 13.7251C29.6695 10.0168 33.1765 6.89816 34.4817 5.86615C35.7879 6.89593 39.2922 10.0056 39.2922 13.7251C39.2922 15.998 37.6735 19.1589 35.5071 19.9873Z" fill="#231F20"/>
<path d="M16.4459 25.6725C16.9175 25.6725 17.2998 25.2902 17.2998 24.8186C17.2998 24.3471 16.9175 23.9648 16.4459 23.9648C15.9743 23.9648 15.592 24.3471 15.592 24.8186C15.592 25.2902 15.9743 25.6725 16.4459 25.6725Z" fill="#231F20"/>
<path d="M27.4335 25.6725C27.9051 25.6725 28.2874 25.2902 28.2874 24.8186C28.2874 24.3471 27.9051 23.9648 27.4335 23.9648C26.9619 23.9648 26.5796 24.3471 26.5796 24.8186C26.5796 25.2902 26.9619 25.6725 27.4335 25.6725Z" fill="#231F20"/>
<path d="M33.537 15.4674C33.1441 15.7222 33.0295 16.2466 33.2814 16.6424C33.4442 16.8981 33.7203 17.0378 34.0025 17.0378C34.1594 17.0378 34.3182 16.9946 34.4603 16.9039C34.4936 16.8827 34.5278 16.859 34.5625 16.8328C34.9393 16.5491 35.0144 16.0139 34.7307 15.6372C34.4474 15.2612 33.9134 15.1856 33.537 15.4674Z" fill="#231F20"/>
<path d="M35.2021 11.3148C34.9469 10.9183 34.4185 10.8039 34.0219 11.0591C33.6253 11.3144 33.5109 11.8427 33.7661 12.2393C34.0052 12.6105 34.1737 12.9527 34.2672 13.2565C34.38 13.6237 34.7179 13.8596 35.083 13.8596C35.1661 13.8596 35.2508 13.8474 35.3343 13.8217C35.785 13.6831 36.0381 13.2054 35.8994 12.7546C35.7603 12.3018 35.5256 11.8173 35.2021 11.3148Z" fill="#231F20"/>
<path d="M10.4632 15.4675C10.2065 15.2703 9.65191 14.2863 9.65191 13.7252C9.65191 13.3628 9.86648 12.821 10.2405 12.2387C10.4954 11.842 10.3805 11.3137 9.98382 11.0588C9.58705 10.8039 9.05883 10.9188 8.80389 11.3155C8.23344 12.2033 7.94421 13.0141 7.94421 13.7252C7.94421 14.8693 8.83632 16.4558 9.53955 16.9039C9.68182 16.9946 9.84065 17.0378 9.99762 17.0378C10.2797 17.0378 10.5557 16.8982 10.7184 16.6427C10.9707 16.247 10.8561 15.7224 10.4632 15.4675Z" fill="#231F20"/>
</svg>
