<svg width="48" height="39" viewBox="0 0 48 39" fill="none" xmlns="http://www.w3.org/2000/svg">
<path d="M22.3345 0H2.9007C1.30126 0 0 1.30126 0 2.9007V13.4681C0 15.0676 1.30126 16.3688 2.9007 16.3688H9.57846L8.94824 27.9232C8.89468 28.7666 9.19175 29.5794 9.7849 30.2122C10.4767 30.9502 11.5092 31.3735 12.6176 31.3735C13.726 31.3734 14.7586 30.9501 15.4503 30.212C16.0435 29.5792 16.3405 28.7664 16.2869 27.9229L15.6568 16.3687H22.3346C23.934 16.3687 25.2353 15.0675 25.2353 13.4681V2.9007C25.2352 1.30126 23.934 0 22.3345 0ZM14.9251 28.0005C14.9253 28.0027 14.9254 28.005 14.9256 28.0074C14.9641 28.6027 14.6911 29.0276 14.4552 29.2792C14.0203 29.7433 13.3505 30.0094 12.6176 30.0094C11.8847 30.0094 11.215 29.7433 10.78 29.2793C10.5442 29.0277 10.2711 28.6027 10.3097 28.0074C10.3098 28.0051 10.3099 28.0028 10.3101 28.0005L10.9444 16.3687H14.2906L14.9251 28.0005ZM23.8712 13.4682C23.8712 14.3154 23.1818 15.0047 22.3345 15.0047H2.9007C2.05343 15.0047 1.36407 14.3155 1.36407 13.4682V2.9007C1.36407 2.05343 2.05343 1.36407 2.9007 1.36407H22.3345C23.1818 1.36407 23.8712 2.05343 23.8712 2.9007V13.4682Z" fill="#231F20"/>
<path d="M4.43994 3.2757C4.26058 3.2757 4.0846 3.34868 3.95776 3.47558C3.83091 3.60236 3.75793 3.77835 3.75793 3.9577C3.75793 4.13712 3.83091 4.3131 3.95776 4.43988C4.0846 4.56673 4.26058 4.63971 4.43994 4.63971C4.6193 4.63971 4.79528 4.56679 4.92212 4.43988C5.04896 4.3131 5.12194 4.13712 5.12194 3.9577C5.12194 3.77835 5.04896 3.60236 4.92212 3.47558C4.79522 3.34874 4.6193 3.2757 4.43994 3.2757Z" fill="#231F20"/>
<path d="M15.3437 3.2757C14.9666 3.2757 14.6617 3.58122 14.6617 3.9577C14.6617 4.33424 14.9666 4.63971 15.3437 4.63971C15.7202 4.63971 16.0258 4.33424 16.0258 3.9577C16.0258 3.58134 15.7202 3.2757 15.3437 3.2757Z" fill="#231F20"/>
<path d="M9.89172 3.2757C9.51524 3.2757 9.20972 3.58122 9.20972 3.9577C9.20972 4.33424 9.51524 4.63971 9.89172 4.63971C10.2689 4.63971 10.5737 4.33424 10.5737 3.9577C10.5738 3.58134 10.2689 3.2757 9.89172 3.2757Z" fill="#231F20"/>
<path d="M7.16546 3.2757C6.78898 3.2757 6.48413 3.58122 6.48413 3.9577C6.48413 4.33424 6.78898 4.63971 7.16546 4.63971C7.54262 4.63971 7.8482 4.33424 7.8482 3.9577C7.84814 3.58134 7.54262 3.2757 7.16546 3.2757Z" fill="#231F20"/>
<path d="M12.6176 3.2757C12.2411 3.2757 11.9355 3.58122 11.9355 3.9577C11.9355 4.33424 12.2411 4.63971 12.6176 4.63971C12.994 4.63971 13.2996 4.33424 13.2996 3.9577C13.2996 3.58134 12.994 3.2757 12.6176 3.2757Z" fill="#231F20"/>
<path d="M18.0698 4.63974C18.4463 4.63974 18.7512 4.33427 18.7512 3.95773C18.7512 3.58125 18.4463 3.27573 18.0698 3.27573C17.6927 3.27573 17.3871 3.58125 17.3871 3.95773C17.3871 4.33427 17.6927 4.63974 18.0698 4.63974Z" fill="#231F20"/>
<path d="M20.7952 3.2757C20.6158 3.2757 20.4405 3.34868 20.313 3.47558C20.1861 3.60236 20.1132 3.77835 20.1132 3.9577C20.1132 4.13712 20.1861 4.3131 20.313 4.43988C20.4398 4.56673 20.6158 4.63971 20.7952 4.63971C20.9752 4.63971 21.1505 4.56679 21.2773 4.43988C21.4049 4.3131 21.4772 4.13712 21.4772 3.9577C21.4772 3.77835 21.4049 3.60236 21.2773 3.47558C21.1505 3.34874 20.9746 3.2757 20.7952 3.2757Z" fill="#231F20"/>
<path d="M4.43994 6.14026C4.26058 6.14026 4.0846 6.21324 3.95776 6.34014C3.83091 6.46692 3.75793 6.64291 3.75793 6.82226C3.75793 7.00168 3.83091 7.17767 3.95776 7.30445C4.0846 7.43129 4.26058 7.50427 4.43994 7.50427C4.6193 7.50427 4.79528 7.43135 4.92212 7.30445C5.04896 7.17767 5.12194 7.00168 5.12194 6.82226C5.12194 6.64291 5.04896 6.46692 4.92212 6.34014C4.79455 6.2133 4.6193 6.14026 4.43994 6.14026Z" fill="#231F20"/>
<path d="M9.89172 6.14026C9.51524 6.14026 9.20972 6.44578 9.20972 6.82226C9.20972 7.19881 9.51524 7.50427 9.89172 7.50427C10.2689 7.50427 10.5737 7.19881 10.5737 6.82226C10.5738 6.4459 10.2689 6.14026 9.89172 6.14026Z" fill="#231F20"/>
<path d="M12.6176 6.14026C12.2411 6.14026 11.9355 6.44578 11.9355 6.82226C11.9355 7.19881 12.2411 7.50427 12.6176 7.50427C12.994 7.50427 13.2996 7.19881 13.2996 6.82226C13.2996 6.4459 12.994 6.14026 12.6176 6.14026Z" fill="#231F20"/>
<path d="M7.1654 6.14026C6.78892 6.14026 6.4834 6.44578 6.4834 6.82226C6.4834 7.19881 6.78892 7.50427 7.1654 7.50427C7.54256 7.50427 7.84814 7.19881 7.84814 6.82226C7.84808 6.4459 7.54256 6.14026 7.1654 6.14026Z" fill="#231F20"/>
<path d="M15.3437 6.14026C14.9666 6.14026 14.6617 6.44578 14.6617 6.82226C14.6617 7.19881 14.9666 7.50427 15.3437 7.50427C15.7202 7.50427 16.0258 7.19881 16.0258 6.82226C16.0258 6.4459 15.7202 6.14026 15.3437 6.14026Z" fill="#231F20"/>
<path d="M18.0698 6.14026C17.6927 6.14026 17.3878 6.44578 17.3878 6.82226C17.3878 7.19881 17.6927 7.50427 18.0698 7.50427C18.4463 7.50427 18.7512 7.19881 18.7512 6.82226C18.7512 6.4459 18.4463 6.14026 18.0698 6.14026Z" fill="#231F20"/>
<path d="M20.7952 6.14026C20.6158 6.14026 20.4398 6.21324 20.313 6.34014C20.1861 6.46692 20.1132 6.64291 20.1132 6.82226C20.1132 7.00168 20.1861 7.17767 20.313 7.30445C20.4398 7.43129 20.6158 7.50427 20.7952 7.50427C20.9752 7.50427 21.1505 7.43135 21.2773 7.30445C21.4049 7.17767 21.4772 7.00168 21.4772 6.82226C21.4772 6.64291 21.4049 6.46692 21.2773 6.34014C21.1505 6.2133 20.9753 6.14026 20.7952 6.14026Z" fill="#231F20"/>
<path d="M4.43994 9.00479C4.26058 9.00479 4.0846 9.07777 3.95776 9.20468C3.83091 9.33146 3.75793 9.50744 3.75793 9.6868C3.75793 9.86621 3.83091 10.0422 3.95776 10.169C4.0846 10.2958 4.26058 10.3688 4.43994 10.3688C4.6193 10.3688 4.79528 10.2959 4.92212 10.169C5.04896 10.0422 5.12194 9.86621 5.12194 9.6868C5.12194 9.50744 5.04896 9.33146 4.92212 9.20468C4.79522 9.07783 4.6193 9.00479 4.43994 9.00479Z" fill="#231F20"/>
<path d="M7.16614 10.3689C7.54262 10.3689 7.84747 10.0634 7.84747 9.68689C7.84747 9.31041 7.54262 9.00488 7.16614 9.00488C6.78898 9.00488 6.48413 9.31041 6.48413 9.68689C6.48407 10.0634 6.78898 10.3689 7.16614 10.3689Z" fill="#231F20"/>
<path d="M9.89172 9.00479C9.51524 9.00479 9.20972 9.31032 9.20972 9.6868C9.20972 10.0633 9.51524 10.3688 9.89172 10.3688C10.2682 10.3688 10.5737 10.0633 10.5737 9.6868C10.5738 9.31044 10.2682 9.00479 9.89172 9.00479Z" fill="#231F20"/>
<path d="M12.6176 9.00479C12.2411 9.00479 11.9355 9.31032 11.9355 9.6868C11.9355 10.0633 12.2411 10.3688 12.6176 10.3688C12.994 10.3688 13.2996 10.0633 13.2996 9.6868C13.2996 9.31044 12.994 9.00479 12.6176 9.00479Z" fill="#231F20"/>
<path d="M15.3437 9.00479C14.9673 9.00479 14.6617 9.31032 14.6617 9.6868C14.6617 10.0633 14.9673 10.3688 15.3437 10.3688C15.7202 10.3688 16.0258 10.0633 16.0258 9.6868C16.0258 9.31044 15.7202 9.00479 15.3437 9.00479Z" fill="#231F20"/>
<path d="M18.0691 9.00479C17.6926 9.00479 17.3871 9.31032 17.3871 9.6868C17.3871 10.0633 17.6926 10.3688 18.0691 10.3688C18.4462 10.3688 18.7518 10.0633 18.7518 9.6868C18.7518 9.31044 18.4462 9.00479 18.0691 9.00479Z" fill="#231F20"/>
<path d="M20.7952 9.00479C20.6158 9.00479 20.4398 9.07777 20.313 9.20468C20.1861 9.33146 20.1132 9.50744 20.1132 9.6868C20.1132 9.86621 20.1861 10.0422 20.313 10.169C20.4398 10.2958 20.6158 10.3688 20.7952 10.3688C20.9745 10.3688 21.1505 10.2959 21.2773 10.169C21.4049 10.0422 21.4772 9.86621 21.4772 9.6868C21.4772 9.50744 21.4049 9.33146 21.2773 9.20468C21.1505 9.07783 20.9746 9.00479 20.7952 9.00479Z" fill="#231F20"/>
<path d="M4.43994 11.8693C4.25991 11.8693 4.0846 11.9423 3.95776 12.0692C3.83024 12.196 3.75793 12.372 3.75793 12.5513C3.75793 12.7307 3.83024 12.9067 3.95776 13.0335C4.0846 13.1604 4.25991 13.2333 4.43994 13.2333C4.6193 13.2333 4.79528 13.1604 4.92212 13.0335C5.04896 12.9067 5.12194 12.7307 5.12194 12.5513C5.12194 12.372 5.04896 12.196 4.92212 12.0692C4.79522 11.9424 4.6193 11.8693 4.43994 11.8693Z" fill="#231F20"/>
<path d="M9.89172 11.8693C9.51524 11.8693 9.20972 12.1748 9.20972 12.5513C9.20972 12.9279 9.51524 13.2333 9.89172 13.2333C10.2689 13.2333 10.5737 12.9279 10.5737 12.5513C10.5738 12.1749 10.2689 11.8693 9.89172 11.8693Z" fill="#231F20"/>
<path d="M12.6176 11.8693C12.2411 11.8693 11.9355 12.1748 11.9355 12.5513C11.9355 12.9279 12.2411 13.2333 12.6176 13.2333C12.994 13.2333 13.2996 12.9279 13.2996 12.5513C13.2996 12.1749 12.994 11.8693 12.6176 11.8693Z" fill="#231F20"/>
<path d="M7.16614 11.8693C6.78898 11.8693 6.48413 12.1748 6.48413 12.5513C6.48413 12.9279 6.78898 13.2333 7.16614 13.2333C7.54262 13.2333 7.84814 12.9279 7.84814 12.5513C7.84814 12.1749 7.54262 11.8693 7.16614 11.8693Z" fill="#231F20"/>
<path d="M15.3437 11.8693C14.9666 11.8693 14.6617 12.1748 14.6617 12.5513C14.6617 12.9279 14.9666 13.2333 15.3437 13.2333C15.7202 13.2333 16.0258 12.9279 16.0258 12.5513C16.0258 12.1749 15.7202 11.8693 15.3437 11.8693Z" fill="#231F20"/>
<path d="M18.0698 11.8693C17.6927 11.8693 17.3878 12.1748 17.3878 12.5513C17.3878 12.9279 17.6927 13.2333 18.0698 13.2333C18.4463 13.2333 18.7518 12.9279 18.7518 12.5513C18.7519 12.1749 18.4463 11.8693 18.0698 11.8693Z" fill="#231F20"/>
<path d="M20.7952 11.8693C20.6158 11.8693 20.4398 11.9423 20.313 12.0692C20.1861 12.196 20.1132 12.372 20.1132 12.5513C20.1132 12.7307 20.1861 12.9067 20.313 13.0335C20.4398 13.1604 20.6158 13.2333 20.7952 13.2333C20.9752 13.2333 21.1505 13.1604 21.2773 13.0335C21.4049 12.9067 21.4772 12.7307 21.4772 12.5513C21.4772 12.372 21.4049 12.196 21.2773 12.0692C21.1505 11.9424 20.9753 11.8693 20.7952 11.8693Z" fill="#231F20"/>
<path d="M45.5783 19.1045C44.0275 16.9947 41.8999 15.4471 39.4257 14.6295C38.1631 14.2118 36.8423 14 35.5 14C33.7215 14 32.0033 14.3658 30.3935 15.0874C27.1071 16.5598 24.6142 19.374 23.5542 22.8084C23.1865 23.9998 23 25.2419 23 26.5C23 28.489 23.4536 30.3908 24.348 32.1523C25.201 33.8319 26.4472 35.323 27.9518 36.4642C30.1382 38.1232 32.7483 39 35.4999 39C37.4937 39 39.399 38.5446 41.163 37.6465C43.1875 36.616 44.8956 35.0522 46.1027 33.1238C47.3439 31.1409 48 28.8504 48 26.5C48 26.4999 48 26.4936 48 26.4935C47.9986 23.8131 47.1612 21.2581 45.5783 19.1045ZM46.6449 25.0607C43.1919 22.3517 38.9901 20.7362 34.605 20.4404C34.6807 19.8943 34.5998 19.3894 34.3669 18.9778C35.818 17.683 37.457 16.6507 39.2492 15.9034C43.2795 17.3273 46.1094 20.8834 46.6449 25.0607ZM32.4397 21.9278C32.2379 22.1296 32.0203 22.3043 31.7922 22.4474C31.2356 22.7977 30.6438 22.9384 30.2476 22.8144C30.142 22.7812 30.0531 22.729 29.9832 22.6592C29.7675 22.4435 29.7246 22.0293 29.8685 21.5514C30.0084 21.0871 30.3088 20.6082 30.7151 20.2023C30.9421 19.975 31.1901 19.7818 31.4522 19.6283C32.1069 19.2448 32.7744 19.1616 33.1181 19.425C33.1359 19.4384 33.1538 19.454 33.1712 19.4713C33.4196 19.7198 33.437 20.2174 33.218 20.7738C33.2148 20.7811 33.2117 20.7885 33.2087 20.7959C33.0492 21.1928 32.7833 21.5842 32.4397 21.9278ZM37.3247 15.4102C35.9059 16.1488 34.5908 17.0658 33.3969 18.1509C32.8785 17.9543 32.2545 17.9638 31.611 18.1757C31.4937 17.4773 31.3979 16.771 31.3248 16.0645C32.6503 15.5328 34.0525 15.2626 35.5 15.2626C36.1149 15.2626 36.7245 15.3122 37.3247 15.4102ZM30.1171 16.633C30.2011 17.3549 30.3075 18.0752 30.4355 18.7861C30.2202 18.9417 30.0147 19.1168 29.8222 19.3097C29.367 19.7643 29.016 20.2794 28.7923 20.8171C27.5919 21.0575 26.414 21.3995 25.2723 21.8375C26.2781 19.6311 27.9766 17.8015 30.1171 16.633ZM25.4738 31.5807C24.6701 29.9979 24.2626 28.2885 24.2626 26.5C24.2626 25.4624 24.4038 24.4377 24.6819 23.4493C25.9161 22.8959 27.2038 22.466 28.5231 22.1661C28.5415 22.7135 28.7335 23.195 29.0905 23.552C29.1313 23.5928 29.1743 23.6307 29.2184 23.6673C27.9388 26.238 27.2648 29.1034 27.2648 31.9945C27.2648 32.7639 27.3136 33.532 27.407 34.2929C26.6333 33.4888 25.977 32.5715 25.4738 31.5807ZM28.9022 35.5974C28.6544 34.4189 28.5274 33.2083 28.5274 31.9945C28.5274 29.2552 29.1761 26.5414 30.4062 24.1158C30.4592 24.1192 30.5125 24.1215 30.5665 24.1215C30.9488 24.1215 31.3545 24.0381 31.761 23.8761C33.4288 28.7298 36.1866 33.1993 39.7894 36.8896C38.4336 37.4519 36.9948 37.7374 35.5001 37.7374C33.1044 37.7375 30.8283 36.9983 28.9022 35.5974ZM45.0325 32.4539C44.027 34.0601 42.6347 35.3843 40.9885 36.3074C37.3109 32.6344 34.5159 28.1295 32.8735 23.2276C33.0325 23.1027 33.1861 22.967 33.3325 22.8206C33.6793 22.4739 33.9691 22.0853 34.1864 21.6796C38.8144 21.9161 43.2441 23.7147 46.7326 26.7746C46.6838 28.7912 46.0995 30.7494 45.0325 32.4539Z" fill="black"/>
</svg>
