<svg width="45" height="46" viewBox="0 0 45 46" fill="none" xmlns="http://www.w3.org/2000/svg">
<g clip-path="url(#clip0)">
<path d="M44.2822 9.0924L36.4164 1.22645C36.0544 0.864543 35.4675 0.864457 35.1054 1.22645C34.7434 1.58843 34.7434 2.17541 35.1054 2.53748L36.744 4.17612L33.4666 7.45358L29.3371 3.3241C28.975 2.96211 28.3882 2.96211 28.0261 3.3241C27.6641 3.68609 27.6641 4.27306 28.0261 4.63505L29.8614 6.47041L12.8188 23.5131C12.645 23.6869 12.5473 23.9227 12.5473 24.1686C12.5473 24.4144 12.645 24.6502 12.8188 24.824L14.7853 26.7905L11.1801 30.3956C10.8181 30.7576 10.8181 31.3446 11.1801 31.7067L11.8356 32.3621L3.51173 40.686C3.14974 41.048 3.14974 41.6349 3.51173 41.9969C3.69276 42.178 3.92998 42.2684 4.1672 42.2684C4.40442 42.2684 4.64172 42.1779 4.82268 41.9969L13.1464 33.6731L13.8019 34.3285C13.9829 34.5096 14.2202 34.6001 14.4574 34.6001C14.6946 34.6001 14.9319 34.5096 15.1129 34.3285L18.718 30.7234L20.6845 32.6898C20.8655 32.8709 21.1028 32.9613 21.34 32.9613C21.5772 32.9613 21.8145 32.8709 21.9955 32.6898L39.0382 15.6471L40.8735 17.4825C41.0546 17.6635 41.2918 17.754 41.529 17.754C41.7662 17.754 42.0034 17.6635 42.1845 17.4825C42.5465 17.1205 42.5465 16.5335 42.1845 16.1716L38.0549 12.042L41.3322 8.76462L42.9709 10.4033C43.152 10.5844 43.3892 10.6749 43.6264 10.6749C43.8636 10.6749 44.1009 10.5843 44.2819 10.4033C44.6442 10.0414 44.6442 9.45439 44.2822 9.0924ZM17.4073 29.4124L14.4576 32.362L13.1467 31.0511L16.0964 28.1014L17.4073 29.4124ZM36.0886 15.9749L33.7725 13.6589C33.4104 13.2969 32.8236 13.2969 32.4614 13.6589C32.0994 14.0209 32.0994 14.6079 32.4614 14.9699L34.7775 17.2859L33.1389 18.9245L30.8229 16.6085C30.4608 16.2465 29.874 16.2465 29.5118 16.6085C29.1499 16.9705 29.1499 17.5575 29.5118 17.9195L31.8279 20.2355L30.1892 21.8742L27.8731 19.5582C27.511 19.1962 26.9242 19.1962 26.5621 19.5582C26.2001 19.9202 26.2001 20.5071 26.5621 20.8691L28.8782 23.1851L27.2395 24.8238L24.9235 22.5078C24.5614 22.1458 23.9746 22.1458 23.6125 22.5078C23.2505 22.8698 23.2505 23.4567 23.6125 23.8187L25.9286 26.1349L24.2899 27.7735L21.9739 25.4575C21.6119 25.0956 21.025 25.0956 20.6629 25.4575C20.3009 25.8195 20.3009 26.4065 20.6629 26.7686L22.9789 29.0846L21.3403 30.7232L14.7853 24.1684L31.1725 7.78136L37.7274 14.3362L36.0886 15.9749ZM36.7441 10.731L34.7777 8.76462L38.055 5.48724L40.0214 7.45367L36.7441 10.731Z" fill="#231F20"/>
</g>
<defs>
<clipPath id="clip0">
<rect width="44.1176" height="44.1176" fill="white" transform="translate(0.436035 0.955017)"/>
</clipPath>
</defs>
</svg>
