<svg width="45" height="46" viewBox="0 0 45 46" fill="none" xmlns="http://www.w3.org/2000/svg">
<path d="M30.6609 12.9032H29.1187V6.29035C29.1187 5.80348 28.7239 5.40861 28.237 5.40861H26.2532V4.08604C26.2532 2.38439 24.8688 1 23.1672 1C21.4655 1 20.0811 2.38439 20.0811 4.08604V5.40861H18.0973C17.6103 5.40861 17.2156 5.80348 17.2156 6.29035V12.9033H15.6733C13.3635 12.9033 11.4844 14.7825 11.4844 17.0923V37.811C11.4844 40.1208 13.3636 42 15.6733 42H30.6609C32.9707 42 34.8499 40.1208 34.8499 37.811V17.0922C34.8499 14.7824 32.9708 12.9032 30.6609 12.9032ZM21.8446 4.08604C21.8446 3.35677 22.4379 2.76348 23.1672 2.76348C23.8965 2.76348 24.4898 3.35677 24.4898 4.08604V5.40861H21.8446V4.08604ZM18.979 7.17201H27.3553V12.9032H18.979V7.17201ZM33.0865 37.8109C33.0865 39.1483 31.9984 40.2365 30.6609 40.2365H15.6734C14.336 40.2365 13.2479 39.1484 13.2479 37.8109V17.0922C13.2479 15.7548 14.336 14.6666 15.6734 14.6666H30.6609C31.9983 14.6666 33.0865 15.7547 33.0865 17.0922V37.8109Z" fill="#231F20"/>
<path d="M30.4414 16.4301H15.893C15.406 16.4301 15.0112 16.8249 15.0112 17.3118V37.5913C15.0112 38.0782 15.406 38.473 15.893 38.473H30.4413C30.9282 38.473 31.323 38.0782 31.323 37.5913V31.0445C31.323 30.5577 30.9282 30.1628 30.4413 30.1628C29.9544 30.1628 29.5596 30.5577 29.5596 31.0445V36.7096H16.7747V18.1935H29.5596V21.1693C29.5596 21.6562 29.9545 22.051 30.4414 22.051C30.9282 22.051 31.3231 21.6562 31.3231 21.1693V17.3118C31.323 16.8249 30.9283 16.4301 30.4414 16.4301Z" fill="#231F20"/>
<path d="M30.4413 25.2693C29.9544 25.2693 29.5596 25.6642 29.5596 26.1511V26.4156C29.5596 26.9024 29.9544 27.2973 30.4413 27.2973C30.9282 27.2973 31.323 26.9024 31.323 26.4156V26.1511C31.323 25.6642 30.9283 25.2693 30.4413 25.2693Z" fill="#231F20"/>
<path d="M23.1672 20.8302C22.8775 20.8302 22.6063 20.9724 22.4417 21.2107C21.8307 22.0954 18.7823 26.615 18.7823 28.7181C18.7823 31.136 20.7494 33.1029 23.1671 33.1029C25.5848 33.1029 27.552 31.1358 27.552 28.7181C27.552 26.615 24.5038 22.0954 23.8926 21.2107C23.728 20.9725 23.4567 20.8302 23.1672 20.8302ZM25.7886 28.7182C25.7886 30.1637 24.6127 31.3396 23.1672 31.3396C21.7217 31.3396 20.5458 30.1636 20.5458 28.7182C20.5458 27.764 21.9086 25.2741 23.1673 23.3064C24.426 25.2736 25.7886 27.7629 25.7886 28.7182Z" fill="#231F20"/>
</svg>
