<svg width="21" height="21" viewBox="0 0 21 21" fill="none" xmlns="http://www.w3.org/2000/svg">
<path fill-rule="evenodd" clip-rule="evenodd" d="M10.5 21C16.299 21 21 16.299 21 10.5C21 4.701 16.299 0 10.5 0C4.701 0 0 4.701 0 10.5C0 16.299 4.701 21 10.5 21Z" fill="#3EC6FF"/>
<path d="M17 16V15.2835C17 15.0825 16.882 14.902 16.7035 14.831C14.6105 13.9925 12.2875 12.952 12.092 12.3035V11.623C12.5265 11.163 12.8685 10.521 13.0715 9.7695C13.5585 9.4155 13.6795 8.685 13.2765 8.171V6.6485C13.2765 5.076 12.4315 4 10.5 4C8.6185 4 7.723 5.076 7.723 6.6485V8.1715C7.321 8.6845 7.4415 9.4145 7.928 9.7695C8.1305 10.521 8.4735 11.163 8.9075 11.623V12.3035C8.713 12.951 6.389 13.992 4.2965 14.8305C4.118 14.9025 4 15.082 4 15.283V16" stroke="white"/>
</svg>
