<svg width="320" height="320" viewBox="0 0 320 320" fill="none" xmlns="http://www.w3.org/2000/svg">
<g filter="url(#filter0_d_380:9309)">
<path fill-rule="evenodd" clip-rule="evenodd" d="M267.51 222.42C250.732 225.496 241.767 241.322 238.437 248.498C237.473 250.647 237.932 253.169 239.59 254.841C245.161 260.416 259.249 272.013 275.963 269.001C289.475 266.502 298.568 254.072 296.199 241.258C293.957 228.379 281.086 219.985 267.51 222.42Z" fill="#FFD7E7"/>
<path fill-rule="evenodd" clip-rule="evenodd" d="M29.6227 251.58C32.1637 263.362 41.7733 272.312 53.7007 274.005C78.5471 277.465 123.885 280.669 168.967 267.278C196.503 259.076 223.975 244.724 246.516 220.44C294.544 168.733 293.712 89.8589 244.659 44.2388C205.853 8.16555 148.54 3.68042 102.497 28.9893C89.9528 35.882 78.6007 44.7524 68.8775 55.2594C9.45102 119.269 21.0353 212.111 29.6227 251.58Z" fill="#FE86B6"/>
<mask id="mask0_380:9309" style="mask-type:alpha" maskUnits="userSpaceOnUse" x="20" y="13" width="280" height="280">
<path fill-rule="evenodd" clip-rule="evenodd" d="M29.6227 251.58C32.1637 263.362 41.7733 272.312 53.7007 274.005C78.5471 277.465 123.885 280.669 168.967 267.278C196.503 259.076 223.975 244.724 246.516 220.44C294.544 168.733 293.712 89.8589 244.659 44.2388C205.853 8.16555 148.54 3.68042 102.497 28.9893C89.9528 35.882 78.6007 44.7524 68.8775 55.2594C9.45102 119.269 21.0353 212.111 29.6227 251.58Z" fill="#D0C9D6"/>
</mask>
<g mask="url(#mask0_380:9309)">
<path fill-rule="evenodd" clip-rule="evenodd" d="M152.77 61.4697C152.506 61.3869 152.365 61.3446 152.365 61.3446C101.969 36.806 94.4673 55.7511 83.57 83.2726L83.321 83.9011C76.3969 101.403 77.3168 110.172 78.9536 114.281C92.8483 115.013 106.521 109.51 118.102 102.437C116.643 106.16 115.847 109.162 115.54 111.029C114.332 118.368 115.215 127.463 115.215 127.463C115.215 127.463 89.9525 134.695 82.5315 141.994C79.6811 144.797 75.2817 151.691 77.6998 161.98C77.838 162.57 77.9746 163.177 78.1143 163.799C79.1305 168.32 80.6224 172.136 82.5106 175.349C80.7881 176.866 79.9054 178.678 80.2199 181.227C80.7279 185.345 84.3906 188.239 88.4008 187.692C88.9032 187.623 89.3872 187.504 89.8486 187.339C89.8173 187.817 89.8302 188.305 89.8909 188.797C90.3989 192.915 94.0616 195.809 98.0718 195.262C101.246 194.829 102.226 193.186 103.401 189.831C106.03 190.426 108.917 190.842 112.287 191.179C121.084 192.058 130.65 191.101 139.839 190.182C140.707 190.095 141.571 190.008 142.43 189.924L142.431 189.924C143.864 189.783 145.285 189.643 146.691 189.51C132.936 199.151 122.334 212.693 116.301 228.44C115.084 231.616 114.066 234.848 113.246 238.12C108.864 228.928 105.907 219.372 104.303 209.723C96.5002 226.584 93.8491 245.416 96.7679 263.833C100.029 284.407 110.055 303.291 125.265 317.504C140.475 331.716 160.002 340.448 180.764 342.321C183.222 342.543 185.68 342.667 188.134 342.695C191.787 343.006 195.473 343.08 199.168 342.913C251.79 342.913 288 301.718 288 255.12C288 194.341 245.191 153.821 207.121 135.249C197.232 131.96 190.649 101.491 188.417 91.1551L188.417 91.1551C188.359 90.8886 188.304 90.6356 188.253 90.3967C200.013 105.193 223.668 129.992 251.322 132.471C253.733 128.268 256.089 118.899 251.288 98.8427L251.115 98.1223C243.75 67.3941 238.622 45.9948 184.306 62.2934C176.645 61.3106 163.633 60.1137 152.77 61.4697ZM132.017 125.53C132.63 125.853 133.222 126.165 133.75 126.5C134.104 126.225 134.513 125.941 134.951 125.636C137.303 124.002 140.5 121.78 140.5 117.345C140.5 112.077 134 113.345 133.75 117.845C133.5 113.345 126.5 113.101 126.5 118.368C126.5 122.621 129.438 124.17 132.017 125.53ZM160.185 125.759C161.074 126.401 161.988 127.061 162.801 127.904C163.32 127.442 163.887 126.999 164.464 126.549C166.89 124.656 169.5 122.62 169.5 118.368C169.5 113.1 162.801 114.5 162.801 118.368C162.5 114 156 113.732 156 119C156 122.736 158.015 124.191 160.185 125.759ZM110.929 159.974C118.105 159.974 123.923 156.576 123.923 152.385C123.923 148.194 118.105 144.797 110.929 144.797C103.752 144.797 97.9348 148.194 97.9348 152.385C97.9348 156.576 103.752 159.974 110.929 159.974Z" fill="white"/>
<path d="M42.19 236.911C42.6996 236.437 42.983 235.992 43.0403 235.578C43.0895 235.156 42.9751 234.795 42.6972 234.496C42.4438 234.224 42.1513 234.095 41.8196 234.108C41.4798 234.113 41.0679 234.234 40.5839 234.471L39.4953 234.992C39.0634 235.198 38.6499 235.361 38.255 235.483C37.86 235.604 37.4842 235.667 37.1274 235.671C36.7625 235.667 36.417 235.595 36.0908 235.456C35.7565 235.308 35.434 235.067 35.1234 234.733C34.4612 234.022 34.206 233.21 34.3577 232.299C34.5012 231.378 35.0385 230.485 35.9697 229.618C36.3387 229.275 36.7055 228.991 37.0702 228.766C37.4355 228.525 37.7814 228.35 38.1079 228.243C38.4263 228.127 38.7164 228.087 38.9784 228.122C39.2491 228.148 39.4703 228.254 39.642 228.439C39.8055 228.614 39.9046 228.809 39.9394 229.022C39.9748 229.219 39.9677 229.414 39.9183 229.608C39.5685 229.654 39.1689 229.789 38.7194 230.01C38.2705 230.215 37.8396 230.509 37.4267 230.893C36.9699 231.318 36.7006 231.725 36.6187 232.112C36.5286 232.491 36.6144 232.821 36.876 233.102C37.0885 233.331 37.3311 233.433 37.6037 233.409C37.885 233.376 38.2545 233.254 38.7122 233.041L39.684 232.579C40.6609 232.097 41.544 231.857 42.3336 231.86C43.1231 231.863 43.8326 232.202 44.4621 232.879C44.7972 233.239 45.0335 233.634 45.1709 234.063C45.3082 234.493 45.343 234.944 45.275 235.417C45.2076 235.873 45.025 236.346 44.7272 236.836C44.4463 237.327 44.0511 237.81 43.5416 238.284C43.1375 238.66 42.7314 238.972 42.3234 239.221C41.9242 239.461 41.5485 239.639 41.1962 239.753C40.8358 239.859 40.5117 239.898 40.224 239.871C39.9369 239.827 39.7035 239.708 39.5236 239.515C39.3356 239.313 39.2333 239.088 39.2167 238.841C39.2007 238.578 39.2391 238.337 39.3318 238.12C39.7313 238.109 40.1888 238.019 40.7043 237.851C41.2116 237.674 41.7069 237.36 42.19 236.911ZM51.2864 226.922C51.2639 227.074 51.2029 227.237 51.1032 227.412C51.0035 227.587 50.8614 227.76 50.6769 227.931C50.4485 228.144 50.2307 228.298 50.0235 228.392C49.817 228.469 49.6135 228.462 49.413 228.37C48.219 227.809 47.2047 227.327 46.3702 226.923C45.5356 226.52 44.8352 226.163 44.269 225.854L44.2031 225.915C44.7244 226.529 45.2008 227.093 45.6322 227.61C46.0724 228.118 46.5045 228.618 46.9283 229.108C47.344 229.59 47.7635 230.085 48.1867 230.593C48.6188 231.092 49.0788 231.64 49.5669 232.235C49.5035 232.343 49.4182 232.471 49.311 232.62C49.2037 232.769 49.0755 232.913 48.9261 233.052C48.3375 233.6 47.8389 233.654 47.4301 233.215C47.2993 233.074 47.1034 232.855 46.8425 232.557C46.5821 232.242 46.2809 231.883 45.9387 231.48C45.5972 231.06 45.223 230.605 44.8161 230.115C44.418 229.617 44.0114 229.118 43.5963 228.619C43.19 228.112 42.7919 227.614 42.402 227.124C42.0039 226.626 41.6341 226.167 41.2926 225.747C41.2811 225.594 41.3267 225.387 41.4295 225.128C41.5328 224.851 41.7338 224.574 42.0325 224.296C42.3663 223.986 42.6874 223.793 42.9957 223.72C43.3047 223.629 43.6304 223.662 43.9729 223.818C44.3405 223.985 44.737 224.173 45.1625 224.383C45.5967 224.586 46.0391 224.797 46.4897 225.017C46.9403 225.237 47.3824 225.457 47.816 225.676C48.2503 225.879 48.6594 226.072 49.0433 226.255L49.096 226.206C48.6263 225.102 48.1767 224.029 47.7472 222.986C47.3266 221.935 46.9767 221.04 46.6977 220.299C46.754 220.149 46.8493 219.978 46.9835 219.788C47.1178 219.597 47.2727 219.42 47.4484 219.257C47.7735 218.954 48.0776 218.761 48.3608 218.678C48.644 218.595 48.8974 218.629 49.1212 218.782C49.3117 218.916 49.6005 219.147 49.9878 219.475C50.3669 219.795 50.795 220.167 51.2722 220.591C51.7494 221.016 52.2552 221.472 52.7896 221.958C53.324 222.444 53.8376 222.917 54.3305 223.376C54.8153 223.827 55.2589 224.242 55.6612 224.621C56.0636 225.001 56.3755 225.301 56.5968 225.521C56.548 225.697 56.4741 225.865 56.375 226.022C56.2847 226.172 56.1473 226.333 55.9628 226.504C55.7344 226.717 55.4915 226.861 55.2341 226.936C54.9772 226.995 54.7215 226.905 54.4669 226.667C53.9167 226.146 53.3832 225.634 52.8664 225.132C52.3414 224.621 51.8494 224.136 51.3904 223.678C50.9314 223.22 50.5092 222.801 50.1237 222.422C49.7301 222.035 49.394 221.7 49.1155 221.418L49.0496 221.479C49.2933 222.023 49.5905 222.73 49.9412 223.6C50.2838 224.462 50.7322 225.569 51.2864 226.922ZM61.2913 217.858L58.3396 220.604C58.5454 221.019 58.7547 221.456 58.9675 221.913C59.1891 222.363 59.371 222.735 59.5132 223.028C59.4581 223.145 59.3901 223.266 59.3092 223.39C59.2371 223.507 59.1263 223.634 58.977 223.773C58.6783 224.051 58.3924 224.211 58.1192 224.252C57.8378 224.284 57.595 224.19 57.3906 223.971C57.2925 223.865 57.2117 223.752 57.1481 223.631C57.0851 223.493 57.0143 223.337 56.9356 223.165C56.777 222.853 56.5954 222.473 56.3908 222.024C56.1868 221.559 55.9627 221.062 55.7184 220.536C55.4748 219.992 55.2317 219.431 54.9893 218.854C54.7387 218.267 54.4956 217.707 54.2602 217.172C54.0253 216.62 53.8103 216.107 53.6151 215.633C53.4205 215.142 53.2529 214.724 53.1125 214.379C53.1695 214.212 53.2792 213.995 53.4416 213.729C53.6128 213.455 53.8126 213.212 54.041 212.999C54.3484 212.713 54.6745 212.5 55.0192 212.359C55.3557 212.21 55.6531 212.204 55.9114 212.34C56.5367 212.66 57.2491 213.038 58.0485 213.474C58.8397 213.902 59.6514 214.351 60.4835 214.823C61.3244 215.286 62.1443 215.745 62.9431 216.198C63.7419 216.651 64.4574 217.059 65.0897 217.421C65.0917 217.6 65.0423 217.793 64.9414 218.002C64.8575 218.211 64.7101 218.414 64.4992 218.61C64.1918 218.896 63.9231 219.048 63.6932 219.065C63.464 219.065 63.2038 218.979 62.9128 218.808L61.2913 217.858ZM55.4257 214.514C55.551 214.807 55.692 215.135 55.8488 215.497C56.0144 215.851 56.1834 216.226 56.3559 216.623C56.529 217.003 56.706 217.396 56.8866 217.801C57.0592 218.198 57.232 218.586 57.4051 218.966L59.698 216.832L55.4915 214.452L55.4257 214.514ZM66.0797 203.911C66.2432 204.087 66.3379 204.286 66.3639 204.507C66.3817 204.72 66.3618 204.919 66.3042 205.104C65.9369 205.167 65.5554 205.268 65.1598 205.406C64.7643 205.545 64.36 205.806 63.9471 206.191C63.2004 206.886 62.8278 207.683 62.8294 208.583C62.8398 209.475 63.27 210.378 64.1202 211.291C64.9867 212.223 65.865 212.708 66.7551 212.749C67.6452 212.789 68.4767 212.45 69.2498 211.731C69.6539 211.355 69.9519 210.979 70.1437 210.604C70.3361 210.212 70.477 209.835 70.5665 209.473C70.763 209.437 70.9662 209.453 71.1761 209.52C71.3778 209.578 71.5604 209.695 71.7239 209.871C71.8628 210.02 71.95 210.193 71.9854 210.39C72.0208 210.586 71.9912 210.819 71.8966 211.087C71.819 211.356 71.6586 211.686 71.4153 212.076C71.1889 212.467 70.8386 212.883 70.3642 213.325C69.7844 213.864 69.1664 214.283 68.5104 214.582C67.8549 214.865 67.1833 215.006 66.4955 215.007C65.7996 214.999 65.101 214.829 64.3996 214.498C63.6983 214.167 63.0166 213.646 62.3544 212.934C61.7168 212.249 61.2623 211.549 60.9908 210.835C60.7112 210.112 60.5879 209.407 60.6211 208.72C60.6549 208.017 60.8276 207.348 61.1391 206.714C61.4594 206.071 61.8919 205.497 62.4365 204.99C62.8143 204.639 63.1896 204.355 63.5625 204.139C63.9272 203.914 64.2725 203.757 64.5983 203.667C64.9242 203.577 65.2138 203.553 65.467 203.596C65.7201 203.639 65.9244 203.744 66.0797 203.911ZM72.6607 204.401L75.8365 207.814C75.782 207.914 75.6882 208.043 75.5552 208.199C75.4392 208.356 75.2977 208.512 75.1308 208.668C74.797 208.978 74.5066 209.142 74.2598 209.159C74.0136 209.158 73.7515 209.009 73.4736 208.71L66.6927 201.423C66.7466 201.34 66.836 201.216 66.9608 201.051C67.0944 200.877 67.2359 200.721 67.3852 200.582C67.7015 200.288 67.9874 200.128 68.2431 200.103C68.4987 200.078 68.7695 200.22 69.0556 200.527L71.5816 203.242L71.507 196.82C71.9287 196.428 72.3094 196.229 72.6492 196.224C72.9978 196.212 73.2784 196.319 73.4909 196.548C73.6626 196.732 73.7696 196.944 73.8119 197.183C73.8549 197.406 73.87 197.695 73.8571 198.051L73.6902 202.337C75.0294 202.402 76.2156 202.47 77.2489 202.542C78.2822 202.613 79.1343 202.648 79.8051 202.646C80.0661 202.944 80.182 203.263 80.1529 203.601C80.1243 203.923 79.9826 204.202 79.7279 204.439C79.4731 204.676 79.1966 204.811 78.8983 204.842C78.5918 204.865 78.2733 204.867 77.9429 204.846L72.6607 204.401ZM76.579 193.133C76.7998 193.37 77.0897 193.691 77.4487 194.094C77.7996 194.489 78.1747 194.918 78.5741 195.383C78.9652 195.838 79.3558 196.311 79.7457 196.8C80.1363 197.273 80.4731 197.705 80.7562 198.098C80.7349 198.216 80.6748 198.354 80.5757 198.512C80.4772 198.652 80.3753 198.772 80.2699 198.87C80.0854 199.042 79.8987 199.158 79.7097 199.219C79.5213 199.263 79.3322 199.21 79.1423 199.059C78.9034 198.855 78.5787 198.559 78.1681 198.17C77.7494 197.773 77.3105 197.345 76.8515 196.887C76.3843 196.421 75.9256 195.954 75.4754 195.488C75.017 195.013 74.6243 194.6 74.2974 194.248C74.4232 193.82 74.6574 193.446 75 193.127C75.2635 192.882 75.5313 192.756 75.8032 192.749C76.0752 192.741 76.3338 192.87 76.579 193.133ZM80.936 201.594C80.6663 201.304 80.5378 200.981 80.5506 200.625C80.5552 200.26 80.7113 199.934 81.0188 199.648C81.3262 199.362 81.6621 199.23 82.0265 199.251C82.3826 199.264 82.6956 199.416 82.9653 199.706C83.2351 199.995 83.3677 200.323 83.363 200.688C83.3502 201.044 83.1901 201.365 82.8826 201.651C82.5751 201.937 82.2433 202.074 81.8872 202.061C81.5228 202.04 81.2058 201.884 80.936 201.594Z" fill="white"/>
</g>
</g>
<defs>
<filter id="filter0_d_380:9309" x="0" y="0" width="320" height="320" filterUnits="userSpaceOnUse" color-interpolation-filters="sRGB">
<feFlood flood-opacity="0" result="BackgroundImageFix"/>
<feColorMatrix in="SourceAlpha" type="matrix" values="0 0 0 0 0 0 0 0 0 0 0 0 0 0 0 0 0 0 127 0" result="hardAlpha"/>
<feOffset dy="7"/>
<feGaussianBlur stdDeviation="10"/>
<feColorMatrix type="matrix" values="0 0 0 0 0 0 0 0 0 0 0 0 0 0 0 0 0 0 0.07 0"/>
<feBlend mode="normal" in2="BackgroundImageFix" result="effect1_dropShadow_380:9309"/>
<feBlend mode="normal" in="SourceGraphic" in2="effect1_dropShadow_380:9309" result="shape"/>
</filter>
</defs>
</svg>
