<svg width="121" height="42" viewBox="0 0 121 42" fill="none" xmlns="http://www.w3.org/2000/svg">
<path fill-rule="evenodd" clip-rule="evenodd" d="M11.5337 1.88629C11.5337 1.88629 11.5539 1.8923 11.5919 1.90404C13.153 1.71159 15.0231 1.88147 16.1241 2.02096C23.9298 -0.292301 24.6668 2.7449 25.7252 7.10616L25.75 7.2084C26.44 10.055 26.1015 11.3848 25.755 11.9813C21.7808 11.6294 18.3813 8.10969 16.6912 6.00966C16.6986 6.04356 16.7065 6.07948 16.7147 6.11729C17.0356 7.5842 17.9816 11.9088 19.4027 12.3756C24.8739 15.0115 31.026 20.7624 31.026 29.3889C31.026 36.0025 25.8223 41.8493 18.2598 41.8493C17.7288 41.8731 17.1992 41.8625 16.6741 41.8183C16.3215 41.8144 15.9682 41.7968 15.6149 41.7653C12.6312 41.4995 9.82495 40.2602 7.63911 38.243C5.45328 36.2258 4.01235 33.5456 3.54375 30.6255C3.12429 28.0116 3.50529 25.3387 4.62669 22.9456C4.85712 24.3152 5.28206 25.6714 5.91191 26.976C6.02964 26.5117 6.17599 26.0529 6.35084 25.6021C7.21788 23.3672 8.7416 21.4452 10.7183 20.0768C10.5163 20.0957 10.312 20.1156 10.106 20.1356C8.67352 20.2747 7.16022 20.4217 5.77397 20.3137L4.77639 21.5577C4.40263 22.0238 3.71747 22.1021 3.24604 21.7325C2.77462 21.363 2.69544 20.6856 3.0692 20.2195L3.42773 19.7724C2.20674 19.2259 1.26978 18.2147 0.863014 16.4276C0.842937 16.3394 0.823314 16.2532 0.803447 16.1695C0.45594 14.7091 1.08819 13.7307 1.49782 13.3328C2.56431 12.2969 6.19483 11.2704 6.19483 11.2704C6.19483 11.2704 6.06794 9.97966 6.24152 8.93806C6.28568 8.67308 6.39999 8.247 6.60974 7.7185C4.94545 8.72244 2.98046 9.50352 0.98364 9.39957C0.748404 8.81641 0.616212 7.57172 1.61129 5.08775L1.64706 4.99853C3.21313 1.0924 4.29118 -1.59648 11.5337 1.88629ZM8.85851 11.0758C8.44379 11.0758 8.10789 10.4687 8.10789 9.72172C8.10789 8.97414 8.44386 8.3685 8.85851 8.3685C9.27188 8.3685 9.608 8.97414 9.608 9.72172C9.608 10.4687 9.27252 11.0758 8.85851 11.0758ZM13.0335 11.3331C12.6194 11.3331 12.2833 10.7268 12.2833 9.97966C12.2833 9.23193 12.6194 8.62559 13.0335 8.62559C13.4471 8.62559 13.783 9.23193 13.783 9.97966C13.783 10.7268 13.447 11.3331 13.0335 11.3331ZM7.44627 14.8077C7.44627 15.4025 6.6102 15.8847 5.57886 15.8847C4.54752 15.8847 3.71145 15.4025 3.71145 14.8077C3.71145 14.2129 4.54752 13.7307 5.57886 13.7307C6.6102 13.7307 7.44627 14.2129 7.44627 14.8077Z" fill="url(#paint0_linear)"/>
<path d="M46.579 30.5579C45.8708 30.5579 45.2116 30.486 44.6011 30.3424C44.0151 30.2227 43.4779 30.0671 42.9895 29.8756V36.4823C42.7698 36.5302 42.4767 36.59 42.1105 36.6619C41.7442 36.7337 41.3291 36.7696 40.8652 36.7696C40.0105 36.7696 39.3757 36.614 38.9605 36.3028C38.5454 35.9916 38.3379 35.4411 38.3379 34.6511V16.4468C38.3379 15.8724 38.4478 15.4056 38.6675 15.0465C38.9117 14.6875 39.2902 14.3523 39.803 14.0412C40.5111 13.6342 41.3901 13.2871 42.4401 12.9999C43.4901 12.6887 44.6744 12.5331 45.9929 12.5331C47.3359 12.5331 48.569 12.7126 49.6923 13.0717C50.8399 13.4068 51.8288 13.9454 52.659 14.6875C53.4893 15.4056 54.1363 16.3272 54.6003 17.4522C55.0642 18.5773 55.2962 19.9178 55.2962 21.4737C55.2962 22.9817 55.0764 24.2983 54.6369 25.4233C54.1974 26.5484 53.5869 27.4939 52.8056 28.2599C52.0486 29.0259 51.1329 29.6004 50.0585 29.9834C49.0086 30.3664 47.8487 30.5579 46.579 30.5579ZM45.8831 26.9314C47.3481 26.9314 48.4958 26.4885 49.326 25.6028C50.1562 24.7172 50.5713 23.3408 50.5713 21.4737C50.5713 19.5348 50.144 18.1584 49.2894 17.3445C48.4347 16.5306 47.3359 16.1237 45.9929 16.1237C45.3336 16.1237 44.7476 16.2075 44.2348 16.375C43.7465 16.5426 43.3192 16.7221 42.9529 16.9136V26.1414C43.3436 26.3808 43.7709 26.5723 44.2348 26.7159C44.7232 26.8596 45.2726 26.9314 45.8831 26.9314Z" fill="#3F3356"/>
<path d="M61.3912 23.5921C61.733 24.8129 62.3679 25.6986 63.2958 26.2492C64.2236 26.7997 65.3713 27.075 66.7387 27.075C67.7643 27.075 68.7043 26.9314 69.559 26.6441C70.438 26.3329 71.1461 26.0098 71.6833 25.6747C72.0252 25.8662 72.306 26.1295 72.5258 26.4646C72.7455 26.7997 72.8554 27.1588 72.8554 27.5418C72.8554 28.0205 72.6845 28.4514 72.3426 28.8344C72.0252 29.1934 71.5735 29.5046 70.9874 29.7679C70.4258 30.0312 69.7543 30.2347 68.9729 30.3783C68.1916 30.522 67.3491 30.5938 66.4457 30.5938C65.005 30.5938 63.6864 30.4023 62.49 30.0193C61.3179 29.6363 60.3046 29.0618 59.4499 28.2958C58.6197 27.5059 57.9604 26.5364 57.4721 25.3874C57.0081 24.2384 56.7762 22.8979 56.7762 21.366C56.7762 19.8818 57.0081 18.5892 57.4721 17.4881C57.936 16.387 58.5587 15.4654 59.34 14.7234C60.1458 13.9813 61.0737 13.4308 62.1237 13.0717C63.1737 12.7126 64.2847 12.5331 65.4568 12.5331C66.6532 12.5331 67.752 12.7246 68.7532 13.1076C69.7543 13.4667 70.609 13.9813 71.3171 14.6516C72.0252 15.2979 72.5746 16.0878 72.9653 17.0213C73.3804 17.931 73.5879 18.9244 73.5879 20.0015C73.5879 20.6718 73.4048 21.1745 73.0385 21.5096C72.6967 21.8447 72.2083 22.0601 71.5735 22.1559L61.3912 23.5921ZM65.4568 15.9442C64.2603 15.9442 63.2591 16.3391 62.4533 17.1291C61.6475 17.8951 61.1958 18.9962 61.0981 20.4324L69.2293 19.2475C69.1317 18.3618 68.7776 17.5958 68.1671 16.9495C67.5567 16.2793 66.6532 15.9442 65.4568 15.9442Z" fill="#3F3356"/>
<path d="M80.3705 24.777C80.3705 25.543 80.6025 26.0936 81.0664 26.4287C81.5548 26.7638 82.2263 26.9314 83.0809 26.9314C83.496 26.9314 83.9111 26.8835 84.3262 26.7877C84.7658 26.692 85.1565 26.5723 85.4983 26.4287C85.6936 26.6202 85.8524 26.8596 85.9745 27.1468C86.121 27.4101 86.1942 27.7213 86.1942 28.0804C86.1942 28.7985 85.8646 29.3969 85.2053 29.8756C84.546 30.3305 83.4838 30.5579 82.0187 30.5579C80.0897 30.5579 78.5636 30.139 77.4404 29.3012C76.3416 28.4394 75.7921 27.0271 75.7921 25.0643V8.58346C75.9875 8.53559 76.2683 8.47574 76.6346 8.40393C77.0253 8.33212 77.4404 8.29621 77.8799 8.29621C78.7345 8.29621 79.3572 8.45181 79.7479 8.76299C80.163 9.07417 80.3705 9.62473 80.3705 10.4147V13.3948H85.7547C85.8768 13.5863 85.9867 13.8377 86.0843 14.1489C86.182 14.4601 86.2308 14.7952 86.2308 15.1542C86.2308 15.7766 86.0843 16.2314 85.7913 16.5187C85.4983 16.8059 85.1076 16.9495 84.6193 16.9495H80.3705V24.777Z" fill="#3F3356"/>
<path d="M96.9983 16.1596C96.2658 16.1596 95.5821 16.2793 94.9472 16.5187C94.3368 16.758 93.7996 17.1051 93.3356 17.5599C92.8961 18.0147 92.542 18.5773 92.2734 19.2475C92.0048 19.9177 91.8705 20.6957 91.8705 21.5814C91.8705 23.3527 92.3467 24.6932 93.299 25.6028C94.2513 26.4885 95.4844 26.9314 96.9983 26.9314C97.853 26.9314 98.5855 26.8236 99.1959 26.6082C99.8308 26.3688 100.392 26.1175 100.881 25.8542C101.223 26.0936 101.491 26.3688 101.687 26.68C101.906 26.9912 102.016 27.3503 102.016 27.7572C102.016 28.5711 101.528 29.2413 100.551 29.7679C99.5744 30.2945 98.2559 30.5579 96.5954 30.5579C95.2036 30.5579 93.9217 30.3783 92.7496 30.0193C91.6019 29.6363 90.613 29.0737 89.7828 28.3317C88.9526 27.5657 88.3055 26.6202 87.8416 25.4951C87.4021 24.3701 87.1823 23.0655 87.1823 21.5814C87.1823 20.0733 87.4265 18.7568 87.9148 17.6317C88.4032 16.4828 89.0625 15.5372 89.8927 14.7952C90.7473 14.0292 91.7362 13.4667 92.8595 13.1076C93.9827 12.7246 95.1792 12.5331 96.4489 12.5331C98.0849 12.5331 99.3913 12.8204 100.368 13.3948C101.345 13.9454 101.833 14.6276 101.833 15.4415C101.833 15.8245 101.723 16.1716 101.503 16.4828C101.308 16.7939 101.076 17.0453 100.808 17.2368C100.319 16.9735 99.7698 16.7341 99.1593 16.5187C98.5733 16.2793 97.853 16.1596 96.9983 16.1596Z" fill="#3F3356"/>
<path d="M109.026 30.0193C108.806 30.0671 108.513 30.127 108.147 30.1988C107.78 30.2706 107.365 30.3065 106.901 30.3065C106.047 30.3065 105.412 30.1509 104.997 29.8397C104.582 29.5286 104.374 28.978 104.374 28.1881V6.71636C104.569 6.64454 104.85 6.5847 105.217 6.53683C105.607 6.46501 106.035 6.42911 106.498 6.42911C107.353 6.42911 107.988 6.5847 108.403 6.89588C108.818 7.20707 109.026 7.75763 109.026 8.54755V13.5026C109.563 13.2393 110.173 13.0119 110.857 12.8204C111.565 12.6289 112.347 12.5331 113.201 12.5331C115.423 12.5331 117.194 13.0956 118.512 14.2207C119.831 15.3457 120.49 17.0453 120.49 19.3193V30.0193C120.295 30.0671 120.002 30.127 119.611 30.1988C119.245 30.2706 118.842 30.3065 118.402 30.3065C117.523 30.3065 116.876 30.1509 116.461 29.8397C116.046 29.5286 115.838 28.978 115.838 28.1881V19.5348C115.838 18.3379 115.521 17.4762 114.886 16.9495C114.251 16.399 113.421 16.1237 112.395 16.1237C111.736 16.1237 111.126 16.2314 110.564 16.4468C110.002 16.6383 109.49 16.8777 109.026 17.165V30.0193Z" fill="#3F3356"/>
<defs>
<linearGradient id="paint0_linear" x1="15.8645" y1="0.276154" x2="15.8645" y2="41.8617" gradientUnits="userSpaceOnUse">
<stop stop-color="#FF7854"/>
<stop offset="1" stop-color="#FD267D"/>
</linearGradient>
</defs>
</svg>
