<svg width="3665" height="1324" viewBox="0 0 3665 1324" fill="none" xmlns="http://www.w3.org/2000/svg">
<g clip-path="url(#clip0)">
<rect width="3665" height="1324" fill="white"/>
<path fill-rule="evenodd" clip-rule="evenodd" d="M487.817 152.878C487.817 152.878 488.36 153.042 489.385 153.362C531.445 148.117 581.831 152.747 611.495 156.548C821.805 93.5089 841.664 176.276 870.18 295.126L870.848 297.912C889.438 375.487 880.319 411.724 870.982 427.979C763.905 418.39 672.312 322.474 626.774 265.245C626.975 266.169 627.186 267.148 627.409 268.178C636.054 308.153 661.541 426.005 699.832 438.726C847.244 510.556 1013 667.277 1013 902.359C1013 1082.59 872.795 1241.92 669.039 1241.92C654.731 1242.57 640.461 1242.28 626.315 1241.08C616.814 1240.97 607.294 1240.49 597.777 1239.63C517.386 1232.39 441.777 1198.61 382.884 1143.64C323.991 1088.67 285.167 1015.63 272.542 936.057C261.24 864.825 271.506 791.985 301.72 726.772C307.928 764.093 319.377 801.053 336.347 836.604C339.52 823.951 343.463 811.448 348.174 799.165C371.534 738.26 412.588 685.884 465.846 648.593C460.403 649.108 454.899 649.649 449.349 650.194C410.754 653.985 369.981 657.991 332.631 655.047L305.753 688.949C295.683 701.65 277.223 703.784 264.521 693.713C251.819 683.643 249.686 665.183 259.756 652.481L269.416 640.297C236.519 625.405 211.274 597.849 200.314 549.148C199.774 546.744 199.245 544.395 198.71 542.114C189.347 502.316 206.381 475.653 217.418 464.81C246.153 436.58 343.97 408.608 343.97 408.608C343.97 408.608 340.552 373.433 345.228 345.048C346.418 337.827 349.498 326.216 355.149 311.813C310.308 339.172 257.365 360.457 203.565 357.625C197.227 341.733 193.665 307.813 220.475 240.122L221.439 237.691C263.634 131.244 292.68 57.9684 487.817 152.878ZM415.738 403.304C404.564 403.304 395.514 386.759 395.514 366.404C395.514 346.031 404.566 329.527 415.738 329.527C426.876 329.527 435.932 346.031 435.932 366.404C435.932 386.759 426.893 403.304 415.738 403.304ZM528.225 410.316C517.068 410.316 508.012 393.794 508.012 373.433C508.012 353.056 517.068 336.533 528.225 336.533C539.368 336.533 548.42 353.056 548.42 373.433C548.418 393.794 539.366 410.316 528.225 410.316ZM377.688 505.003C377.688 521.213 355.162 534.353 327.374 534.353C299.587 534.353 277.06 521.213 277.06 505.003C277.06 488.794 299.587 475.653 327.374 475.653C355.162 475.653 377.688 488.794 377.688 505.003Z" fill="#3EC6FF"/>
<path d="M1429.24 932.72C1410.29 932.72 1392.65 930.76 1376.32 926.84C1360.64 923.573 1346.27 919.327 1333.2 914.1V1094.42C1327.32 1095.73 1319.48 1097.36 1309.68 1099.32C1299.88 1101.28 1288.77 1102.26 1276.36 1102.26C1253.49 1102.26 1236.51 1098.01 1225.4 1089.52C1214.29 1081.03 1208.74 1066 1208.74 1044.44V547.58C1208.74 531.9 1211.68 519.16 1217.56 509.36C1224.09 499.56 1234.22 490.413 1247.94 481.92C1266.89 470.813 1290.41 461.34 1318.5 453.5C1346.59 445.007 1378.28 440.76 1413.56 440.76C1449.49 440.76 1482.49 445.66 1512.54 455.46C1543.25 464.607 1569.71 479.307 1591.92 499.56C1614.13 519.16 1631.45 544.313 1643.86 575.02C1656.27 605.727 1662.48 642.313 1662.48 684.78C1662.48 725.94 1656.6 761.873 1644.84 792.58C1633.08 823.287 1616.75 849.093 1595.84 870C1575.59 890.907 1551.09 906.587 1522.34 917.04C1494.25 927.493 1463.21 932.72 1429.24 932.72ZM1410.62 833.74C1449.82 833.74 1480.53 821.653 1502.74 797.48C1524.95 773.307 1536.06 735.74 1536.06 684.78C1536.06 631.86 1524.63 594.293 1501.76 572.08C1478.89 549.867 1449.49 538.76 1413.56 538.76C1395.92 538.76 1380.24 541.047 1366.52 545.62C1353.45 550.193 1342.02 555.093 1332.22 560.32V812.18C1342.67 818.713 1354.11 823.94 1366.52 827.86C1379.59 831.78 1394.29 833.74 1410.62 833.74ZM1825.56 742.6C1834.7 775.92 1851.69 800.093 1876.52 815.12C1901.34 830.147 1932.05 837.66 1968.64 837.66C1996.08 837.66 2021.23 833.74 2044.1 825.9C2067.62 817.407 2086.56 808.587 2100.94 799.44C2110.08 804.667 2117.6 811.853 2123.48 821C2129.36 830.147 2132.3 839.947 2132.3 850.4C2132.3 863.467 2127.72 875.227 2118.58 885.68C2110.08 895.48 2098 903.973 2082.32 911.16C2067.29 918.347 2049.32 923.9 2028.42 927.82C2007.51 931.74 1984.97 933.7 1960.8 933.7C1922.25 933.7 1886.97 928.473 1854.96 918.02C1823.6 907.567 1796.48 891.887 1773.62 870.98C1751.4 849.42 1733.76 822.96 1720.7 791.6C1708.28 760.24 1702.08 723.653 1702.08 681.84C1702.08 641.333 1708.28 606.053 1720.7 576C1733.11 545.947 1749.77 520.793 1770.68 500.54C1792.24 480.287 1817.06 465.26 1845.16 455.46C1873.25 445.66 1902.98 440.76 1934.34 440.76C1966.35 440.76 1995.75 445.987 2022.54 456.44C2049.32 466.24 2072.19 480.287 2091.14 498.58C2110.08 516.22 2124.78 537.78 2135.24 563.26C2146.34 588.087 2151.9 615.2 2151.9 644.6C2151.9 662.893 2147 676.613 2137.2 685.76C2128.05 694.907 2114.98 700.787 2098 703.4L1825.56 742.6ZM1934.34 533.86C1902.32 533.86 1875.54 544.64 1853.98 566.2C1832.42 587.107 1820.33 617.16 1817.72 656.36L2035.28 624.02C2032.66 599.847 2023.19 578.94 2006.86 561.3C1990.52 543.007 1966.35 533.86 1934.34 533.86ZM2333.37 774.94C2333.37 795.847 2339.58 810.873 2351.99 820.02C2365.06 829.167 2383.03 833.74 2405.89 833.74C2417 833.74 2428.11 832.433 2439.21 829.82C2450.97 827.207 2461.43 823.94 2470.57 820.02C2475.8 825.247 2480.05 831.78 2483.31 839.62C2487.23 846.807 2489.19 855.3 2489.19 865.1C2489.19 884.7 2480.37 901.033 2462.73 914.1C2445.09 926.513 2416.67 932.72 2377.47 932.72C2325.86 932.72 2285.03 921.287 2254.97 898.42C2225.57 874.9 2210.87 836.353 2210.87 782.78V332.96C2216.1 331.653 2223.61 330.02 2233.41 328.06C2243.87 326.1 2254.97 325.12 2266.73 325.12C2289.6 325.12 2306.26 329.367 2316.71 337.86C2327.82 346.353 2333.37 361.38 2333.37 382.94V464.28H2477.43C2480.7 469.507 2483.64 476.367 2486.25 484.86C2488.87 493.353 2490.17 502.5 2490.17 512.3C2490.17 529.287 2486.25 541.7 2478.41 549.54C2470.57 557.38 2460.12 561.3 2447.05 561.3H2333.37V774.94ZM2778.27 539.74C2758.67 539.74 2740.38 543.007 2723.39 549.54C2707.06 556.073 2692.68 565.547 2680.27 577.96C2668.51 590.373 2659.04 605.727 2651.85 624.02C2644.66 642.313 2641.07 663.547 2641.07 687.72C2641.07 736.067 2653.81 772.653 2679.29 797.48C2704.77 821.653 2737.76 833.74 2778.27 833.74C2801.14 833.74 2820.74 830.8 2837.07 824.92C2854.06 818.387 2869.08 811.527 2882.15 804.34C2891.3 810.873 2898.48 818.387 2903.71 826.88C2909.59 835.373 2912.53 845.173 2912.53 856.28C2912.53 878.493 2899.46 896.787 2873.33 911.16C2847.2 925.533 2811.92 932.72 2767.49 932.72C2730.25 932.72 2695.95 927.82 2664.59 918.02C2633.88 907.567 2607.42 892.213 2585.21 871.96C2563 851.053 2545.68 825.247 2533.27 794.54C2521.51 763.833 2515.63 728.227 2515.63 687.72C2515.63 646.56 2522.16 610.627 2535.23 579.92C2548.3 548.56 2565.94 522.753 2588.15 502.5C2611.02 481.593 2637.48 466.24 2667.53 456.44C2697.58 445.987 2729.6 440.76 2763.57 440.76C2807.34 440.76 2842.3 448.6 2868.43 464.28C2894.56 479.307 2907.63 497.927 2907.63 520.14C2907.63 530.593 2904.69 540.067 2898.81 548.56C2893.58 557.053 2887.38 563.913 2880.19 569.14C2867.12 561.953 2852.42 555.42 2836.09 549.54C2820.41 543.007 2801.14 539.74 2778.27 539.74ZM3100.08 918.02C3094.2 919.327 3086.36 920.96 3076.56 922.92C3066.76 924.88 3055.65 925.86 3043.24 925.86C3020.37 925.86 3003.39 921.613 2992.28 913.12C2981.17 904.627 2975.62 889.6 2975.62 868.04V282C2980.85 280.04 2988.36 278.407 2998.16 277.1C3008.61 275.14 3020.05 274.16 3032.46 274.16C3055.33 274.16 3072.31 278.407 3083.42 286.9C3094.53 295.393 3100.08 310.42 3100.08 331.98V467.22C3114.45 460.033 3130.79 453.827 3149.08 448.6C3168.03 443.373 3188.93 440.76 3211.8 440.76C3271.25 440.76 3318.62 456.113 3353.9 486.82C3389.18 517.527 3406.82 563.913 3406.82 625.98V918.02C3401.59 919.327 3393.75 920.96 3383.3 922.92C3373.5 924.88 3362.72 925.86 3350.96 925.86C3327.44 925.86 3310.13 921.613 3299.02 913.12C3287.91 904.627 3282.36 889.6 3282.36 868.04V631.86C3282.36 599.193 3273.87 575.673 3256.88 561.3C3239.89 546.273 3217.68 538.76 3190.24 538.76C3172.6 538.76 3156.27 541.7 3141.24 547.58C3126.21 552.807 3112.49 559.34 3100.08 567.18V918.02Z" fill="#3EC6FF"/>
</g>
<defs>
<clipPath id="clip0">
<rect width="3665" height="1324" fill="white"/>
</clipPath>
</defs>
</svg>
