<svg width="280" height="280" viewBox="0 0 280 280" fill="none" xmlns="http://www.w3.org/2000/svg">
<path opacity="0.7" fill-rule="evenodd" clip-rule="evenodd" d="M205.776 31.0387C208.851 47.8165 224.677 56.7817 231.853 60.1116C234.003 61.0754 236.524 60.6172 238.197 58.9589C243.771 53.3877 255.368 39.2995 252.357 22.5858C249.858 9.074 237.428 -0.0192747 224.613 2.3501C211.734 4.5914 203.341 17.4629 205.776 31.0387Z" fill="#D0C9D6"/>
<path fill-rule="evenodd" clip-rule="evenodd" d="M255.561 91.746C255.561 92.0643 255.302 92.3223 254.984 92.3223C254.665 92.3223 254.407 92.0643 254.407 91.746C254.407 91.4277 254.665 91.1697 254.984 91.1697C255.302 91.1697 255.561 91.4277 255.561 91.746Z" fill="white"/>
<path fill-rule="evenodd" clip-rule="evenodd" d="M245.565 74.3278C245.565 74.6461 245.307 74.9041 244.988 74.9041C244.67 74.9041 244.412 74.6461 244.412 74.3278C244.412 74.0095 244.67 73.7515 244.988 73.7515C245.307 73.7515 245.565 74.0095 245.565 74.3278Z" fill="white"/>
<path fill-rule="evenodd" clip-rule="evenodd" d="M279.972 216.874C279.972 217.193 279.714 217.451 279.396 217.451C279.077 217.451 278.819 217.193 278.819 216.874C278.819 216.556 279.077 216.298 279.396 216.298C279.714 216.298 279.972 216.556 279.972 216.874Z" fill="white"/>
<path fill-rule="evenodd" clip-rule="evenodd" d="M269.977 199.52C269.977 199.839 269.719 200.097 269.4 200.097C269.082 200.097 268.824 199.839 268.824 199.52C268.824 199.202 269.082 198.944 269.4 198.944C269.719 198.944 269.977 199.202 269.977 199.52Z" fill="white"/>
<path fill-rule="evenodd" clip-rule="evenodd" d="M270.041 233.972C270.041 234.291 269.783 234.549 269.464 234.549C269.146 234.549 268.888 234.291 268.888 233.972C268.888 233.654 269.146 233.396 269.464 233.396C269.783 233.396 270.041 233.654 270.041 233.972Z" fill="white"/>
<path fill-rule="evenodd" clip-rule="evenodd" d="M238.58 270.377C250.362 267.836 259.312 258.227 261.005 246.299C264.465 221.453 267.669 176.115 254.278 131.033C246.076 103.497 231.724 76.0246 207.44 53.4836C155.733 5.4557 76.8589 6.28819 31.2388 55.3406C-4.83445 94.1471 -9.31957 151.46 15.9894 197.503C22.882 210.047 31.7524 221.399 42.2594 231.123C106.269 290.549 199.111 278.965 238.58 270.377Z" fill="#D0C9D6"/>
<path d="M226.515 260.891C228.252 260.435 229.767 260.721 229.915 261.523C230.045 262.332 228.758 263.355 227.027 263.801C225.287 264.251 223.769 263.958 223.633 263.159C223.495 262.354 224.786 261.344 226.515 260.891Z" fill="white"/>
<path d="M224.408 257.479C225.953 256.583 227.584 256.39 228.067 257.06C228.526 257.725 227.658 258.999 226.106 259.905C224.566 260.813 222.939 261.012 222.465 260.338C221.993 259.671 222.862 258.397 224.408 257.479Z" fill="white"/>
<path d="M224.342 265.184C225.983 265.096 227.206 265.723 227.048 266.622C226.889 267.492 225.419 268.306 223.764 268.414C222.109 268.521 220.898 267.897 221.059 267.004C221.219 266.112 222.686 265.314 224.342 265.184Z" fill="white"/>
<path d="M218.806 256.443C220.052 255.35 221.667 254.885 222.395 255.388C223.142 255.912 222.721 257.22 221.498 258.319C220.235 259.398 218.634 259.871 217.889 259.353C217.145 258.835 217.559 257.537 218.806 256.443Z" fill="white"/>
<path fill-rule="evenodd" clip-rule="evenodd" d="M211.029 262.429C211.167 261.743 211.942 260.896 212.821 260.561C213.919 260.143 214.967 260.421 215.997 260.693C216.396 260.799 216.793 260.904 217.189 260.967C217.67 261.049 218.233 261.08 218.803 261.112C220.232 261.191 221.71 261.273 222.08 262.166C222.439 263.033 221.503 264.084 220.581 265.119C220.17 265.581 219.761 266.04 219.471 266.478C219.247 266.808 219.065 267.171 218.883 267.535C218.47 268.359 218.055 269.189 217.132 269.662C216.168 270.157 214.788 270.224 214.077 269.787C213.317 269.336 213.393 268.44 213.47 267.526C213.523 266.906 213.576 266.277 213.368 265.774C213.158 265.268 212.682 264.857 212.212 264.45C211.527 263.859 210.855 263.277 211.029 262.429Z" fill="white"/>
<path d="M200.402 222.264C203.751 221.384 206.671 221.936 206.957 223.481C207.206 225.04 204.727 227.012 201.39 227.872C198.036 228.74 195.111 228.176 194.848 226.636C194.581 225.084 197.071 223.136 200.402 222.264Z" fill="white"/>
<path d="M196.343 215.686C199.32 213.96 202.463 213.588 203.394 214.88C204.28 216.162 202.605 218.617 199.615 220.363C196.647 222.114 193.51 222.497 192.596 221.198C191.688 219.912 193.362 217.457 196.343 215.686Z" fill="white"/>
<path d="M196.214 230.538C199.378 230.369 201.735 231.577 201.431 233.31C201.124 234.987 198.29 236.556 195.1 236.763C191.911 236.971 189.576 235.768 189.886 234.047C190.195 232.326 193.022 230.789 196.214 230.538Z" fill="white"/>
<path d="M185.543 213.691C187.945 211.582 191.059 210.687 192.462 211.656C193.902 212.666 193.09 215.187 190.733 217.305C188.298 219.385 185.213 220.297 183.777 219.299C182.341 218.301 183.141 215.799 185.543 213.691Z" fill="white"/>
<path fill-rule="evenodd" clip-rule="evenodd" d="M170.554 225.228C170.82 223.906 172.314 222.273 174.007 221.627C176.123 220.822 178.145 221.357 180.129 221.882C180.899 222.086 181.664 222.288 182.427 222.41C183.355 222.568 184.439 222.628 185.537 222.689C188.293 222.842 191.142 223 191.854 224.72C192.547 226.392 190.743 228.418 188.966 230.413C188.172 231.303 187.385 232.188 186.826 233.032C186.394 233.669 186.043 234.369 185.692 235.07C184.897 236.658 184.095 238.258 182.317 239.17C180.459 240.124 177.8 240.252 176.429 239.411C174.963 238.541 175.109 236.814 175.259 235.053C175.36 233.857 175.462 232.645 175.061 231.676C174.657 230.701 173.74 229.908 172.833 229.124C171.514 227.983 170.218 226.862 170.554 225.228Z" fill="white"/>
<path d="M251.515 238.891C253.252 238.435 254.767 238.721 254.915 239.523C255.045 240.332 253.758 241.355 252.027 241.801C250.287 242.251 248.769 241.958 248.633 241.159C248.495 240.354 249.786 239.344 251.515 238.891Z" fill="white"/>
<path d="M249.408 235.479C250.953 234.583 252.584 234.39 253.067 235.06C253.526 235.725 252.658 236.999 251.106 237.905C249.566 238.813 247.939 239.012 247.465 238.338C246.993 237.671 247.862 236.397 249.408 235.479Z" fill="white"/>
<path d="M249.342 243.184C250.983 243.096 252.206 243.723 252.048 244.622C251.889 245.492 250.419 246.306 248.764 246.414C247.109 246.521 245.898 245.897 246.059 245.004C246.219 244.112 247.686 243.314 249.342 243.184Z" fill="white"/>
<path d="M243.806 234.443C245.052 233.35 246.667 232.885 247.395 233.388C248.142 233.912 247.721 235.22 246.498 236.319C245.235 237.398 243.634 237.871 242.889 237.353C242.145 236.835 242.559 235.537 243.806 234.443Z" fill="white"/>
<path fill-rule="evenodd" clip-rule="evenodd" d="M236.029 240.429C236.167 239.743 236.942 238.896 237.821 238.561C238.919 238.143 239.967 238.421 240.997 238.693C241.396 238.799 241.793 238.904 242.189 238.967C242.67 239.049 243.233 239.08 243.803 239.112C245.232 239.191 246.71 239.273 247.08 240.166C247.439 241.033 246.503 242.084 245.581 243.119C245.17 243.581 244.761 244.04 244.471 244.478C244.247 244.808 244.065 245.171 243.883 245.535C243.47 246.359 243.055 247.189 242.132 247.662C241.168 248.157 239.788 248.224 239.077 247.787C238.317 247.336 238.393 246.44 238.47 245.526C238.523 244.906 238.576 244.277 238.368 243.774C238.158 243.268 237.682 242.857 237.212 242.45C236.527 241.859 235.855 241.277 236.029 240.429Z" fill="white"/>
<path d="M170.515 265.891C172.252 265.435 173.767 265.721 173.915 266.523C174.045 267.332 172.758 268.355 171.027 268.801C169.287 269.251 167.769 268.958 167.633 268.159C167.495 267.354 168.786 266.344 170.515 265.891Z" fill="white"/>
<path d="M168.408 262.479C169.953 261.583 171.584 261.39 172.067 262.06C172.526 262.725 171.658 263.999 170.106 264.905C168.566 265.813 166.939 266.012 166.465 265.338C165.993 264.671 166.862 263.397 168.408 262.479Z" fill="white"/>
<path d="M168.342 270.184C169.983 270.096 171.206 270.723 171.048 271.622C170.889 272.492 169.419 273.306 167.764 273.414C166.109 273.521 164.898 272.897 165.059 272.004C165.219 271.112 166.686 270.314 168.342 270.184Z" fill="white"/>
<path d="M162.806 261.443C164.052 260.35 165.667 259.885 166.395 260.388C167.142 260.912 166.721 262.22 165.498 263.319C164.235 264.398 162.634 264.871 161.889 264.353C161.145 263.835 161.559 262.537 162.806 261.443Z" fill="white"/>
<path fill-rule="evenodd" clip-rule="evenodd" d="M155.029 267.429C155.167 266.743 155.942 265.896 156.821 265.561C157.919 265.143 158.967 265.421 159.997 265.693C160.396 265.799 160.793 265.904 161.189 265.967C161.67 266.049 162.233 266.08 162.803 266.112C164.232 266.191 165.71 266.273 166.08 267.166C166.439 268.033 165.503 269.084 164.581 270.119C164.17 270.581 163.761 271.04 163.471 271.478C163.247 271.808 163.065 272.171 162.883 272.535C162.47 273.359 162.055 274.189 161.132 274.662C160.168 275.157 158.788 275.224 158.077 274.787C157.317 274.336 157.393 273.44 157.47 272.526C157.523 271.906 157.576 271.277 157.368 270.774C157.158 270.268 156.682 269.857 156.212 269.45C155.527 268.859 154.855 268.277 155.029 267.429Z" fill="white"/>
<mask id="mask0" style="mask-type:alpha" maskUnits="userSpaceOnUse" x="0" y="18" width="265" height="260">
<path fill-rule="evenodd" clip-rule="evenodd" d="M238.58 270.377C250.362 267.836 259.312 258.227 261.005 246.299C264.465 221.453 267.669 176.115 254.278 131.033C246.076 103.497 231.724 76.0246 207.44 53.4836C155.733 5.4557 76.8589 6.28819 31.2388 55.3406C-4.83445 94.1471 -9.31957 151.46 15.9894 197.503C22.882 210.047 31.7524 221.399 42.2594 231.123C106.269 290.549 199.111 278.965 238.58 270.377Z" fill="#FF7854"/>
</mask>
<g mask="url(#mask0)">
<path fill-rule="evenodd" clip-rule="evenodd" d="M76.057 34.8636C83.1771 33.2902 96.5166 36.0416 96.5166 36.0416L96.517 36.0422C99.8973 31.243 113.661 32.9276 115.913 42.992C122.951 47.0776 129.616 52.3574 135.468 58.4195C148.803 72.2332 152.1 92.0979 153.872 108.823C156.041 111.168 158.309 113.574 160.645 116.052L160.646 116.053C166.207 121.954 172.153 128.262 178.062 135.123C112.043 108.225 55.8076 87.4532 5.00542 74.9138L4.21239 75.2718C4.42694 75.1374 4.64345 75.0063 4.86196 74.8784C4.24208 74.7256 3.62302 74.574 3.00475 74.4236L32.5088 65.0286C39.6646 50.806 51.274 40.3416 76.057 34.8636ZM-1.63194 80.1589C-7.38958 86.2927 -11.7777 95.1713 -16.6889 105.108L-17.0172 105.772C-26.1496 124.263 -25.9325 133.921 -24.5139 138.554C3.00039 142.274 31.5692 123.344 46.3204 111.526C46.2169 111.748 46.1074 111.982 45.9922 112.229C41.5214 121.812 28.3409 150.061 17.9687 151.073C-23.2744 160.732 -74.008 190.741 -87.497 250.005C-97.8384 295.441 -71.6743 343.644 -20.3641 355.323C-16.7984 356.306 -13.1883 357.051 -9.55702 357.559C-7.15815 358.076 -4.73332 358.501 -2.28757 358.83C18.3723 361.612 39.3502 357.431 57.3349 346.949C75.3197 336.466 89.2871 320.279 97.0327 300.941C103.966 283.631 105.56 264.68 101.694 246.508C97.9889 255.561 92.985 264.222 86.6717 272.212C86.5989 268.84 86.3234 265.462 85.8418 262.095C83.4538 245.403 76.1208 229.845 64.849 217.392C66.1902 217.834 67.5453 218.285 68.9116 218.741C69.7278 219.013 70.5478 219.288 71.3709 219.564L71.3809 219.567C80.1369 222.503 89.2518 225.56 98.0252 226.654C104.793 227.499 109.723 227.595 114.79 226.559C114.868 226.543 114.945 226.527 115.023 226.511C115.133 226.703 115.233 226.891 115.321 227.074C116.102 228.69 116.195 230.339 115.866 232.391C115.594 234.085 114.986 235.983 114.314 238.078C113.599 240.307 112.812 242.761 112.282 245.432C110.017 248.595 111.89 259.425 116.853 260.647C128.035 263.401 134.3 251.733 131.773 248.983C129.316 246.308 122.363 244.055 117.277 244.001C117.625 242.738 118.023 241.488 118.42 240.244C119.177 237.866 119.929 235.506 120.315 233.101C120.725 230.542 120.649 227.829 119.437 225.244C126.615 222.595 132.832 217.167 137.422 207.541C137.696 206.966 137.964 206.404 138.23 205.86C142.871 196.364 140.111 188.666 137.954 185.299C132.338 176.536 109.31 163.877 109.31 163.877C109.31 163.877 112.19 155.206 112.641 147.782C112.755 145.893 112.646 142.789 112.049 138.835C121.771 148.302 133.882 156.702 147.593 159.072C149.965 155.626 152.637 147.972 150.493 131.413C93.8251 108.028 44.225 90.2428 -1.63194 80.1589ZM116.86 221.61C120.524 219.928 124.235 217.426 125.911 216.244C126.483 215.841 126.754 215.144 126.629 214.456C126.364 212.993 124.501 212.359 123.301 213.237C121.014 214.912 117.433 217.075 113.175 218.044C108.624 219.081 103.594 218.183 100.371 217.329C98.8809 216.933 97.3566 218.226 97.6315 219.743C97.7546 220.422 98.2203 220.984 98.8747 221.202C101.304 222.01 107.469 223.833 112.007 223.198C111.949 223.153 111.89 223.109 111.83 223.065C109.83 221.064 111.83 218.564 113.779 219.065C114.973 219.882 115.997 220.729 116.86 221.61ZM91.542 158.427C94.3558 159.067 97.5842 155.415 98.7522 150.283C99.9212 145.147 98.813 141.14 95.9997 140.5C93.195 139.862 89.7431 142.831 88.5742 147.967C87.4062 153.098 88.733 157.787 91.542 158.427ZM68.5988 152.068H68.5991C71.452 152.185 73.0518 152.251 73.4997 150.283C74.0691 147.782 70.9997 147.782 65.9997 147.782C64.8953 147.816 63.9094 147.821 63.0359 147.826H63.0356C59.1639 147.848 57.4997 147.857 57.4997 150.283C57.4997 152.05 59.84 152.035 64.1762 152.007L64.1793 152.007H64.1797C64.7519 152.004 65.3588 152 65.9997 152C66.9595 152 67.8253 152.036 68.5988 152.068ZM95.2884 186.246C94.3583 190.332 99.2769 194.936 106.274 196.529C113.272 198.121 119.698 196.1 120.629 192.013C121.559 187.927 116.64 183.323 109.643 181.731C102.645 180.138 96.2185 182.159 95.2884 186.246ZM83.1694 140.441C83.4714 141.388 84.73 141.663 85.459 140.988C87.0358 139.527 89.6279 137.496 92.5327 136.71C95.2498 135.975 97.9423 136.124 99.7507 136.386C100.699 136.524 101.568 135.599 101.277 134.686C101.14 134.257 100.775 133.942 100.328 133.885C98.5435 133.659 93.8754 133.18 90.94 133.933C87.9954 134.687 84.6616 137.949 83.4363 139.235C83.1295 139.556 83.0343 140.017 83.1694 140.441ZM74.8902 140.67C75.5331 141.427 76.8156 141.305 77.2288 140.401C77.4137 139.997 77.3743 139.528 77.1084 139.171C76.0459 137.749 73.1267 134.111 70.2937 133.009C67.4695 131.91 62.7778 131.826 60.9794 131.837C60.5284 131.84 60.1284 132.109 59.9409 132.519C59.5425 133.39 60.2945 134.412 61.2526 134.389C63.0794 134.345 65.7703 134.52 68.3798 135.575C71.1696 136.703 73.4998 139.03 74.8902 140.67Z" fill="white"/>
<path fill-rule="evenodd" clip-rule="evenodd" d="M217.164 196.932C212.218 192.815 204.984 192.626 197.821 194.581C189.916 196.74 181.383 201.592 173.533 208.647C165.683 215.702 159.949 223.669 156.961 231.298C154.721 237.019 153.937 242.945 155.753 247.853L117.389 283.966L123.342 290.29L161.159 254.689C166.034 257.919 172.688 257.94 179.285 256.139C187.189 253.981 195.721 249.128 203.571 242.074C211.421 235.019 217.156 227.051 220.143 219.421C223.131 211.792 223.53 203.798 218.623 198.337C218.171 197.834 217.684 197.365 217.164 196.932ZM163.023 247.293C170.892 256.155 184.713 250.285 198.561 237.99C212.409 225.695 219.834 210.275 213.17 202.769C207.444 196.32 192.365 200.229 178.518 212.524C164.67 224.819 156.036 239.423 163.023 247.293Z" fill="white"/>
</g>
</svg>
